<svg xmlns="http://www.w3.org/2000/svg" xmlns:xlink="http://www.w3.org/1999/xlink" viewBox="0 0 430 430" width="430" height="430" preserveAspectRatio="xMidYMid meet" style="width: 100%; height: 100%; transform: translate3d(0px, 0px, 0px); content-visibility: visible;"><defs><clipPath id="__lottie_element_10"><rect width="430" height="430" x="0" y="0"/></clipPath><clipPath id="__lottie_element_12"><path d="M0,0 L430,0 L430,430 L0,430z"/></clipPath><clipPath id="__lottie_element_248"><path d="M0,0 L430,0 L430,430 L0,430z"/></clipPath><clipPath id="__lottie_element_360"><path d="M0,0 L430,0 L430,430 L0,430z"/></clipPath></defs><g clip-path="url(#__lottie_element_10)"><g clip-path="url(#__lottie_element_248)" transform="matrix(1,0,0,1,0,0)" opacity="1" style="display: none;"><g transform="matrix(1,0,0,1,215.03399658203125,259.5)" opacity="1" style="display: block;"><g opacity="1" transform="matrix(1,0,0,1,0,0)"><path class="secondary" fill="rgb(32,32,44)" fill-opacity="1" d=" M-178.37879943847656,-1.2629365921020508 C-179.88063049316406,-0.5659219026565552 -179.88063049316406,0.5659219026565552 -178.37879943847656,1.2629365921020508 C-178.37879943847656,1.2629365921020508 -2.7212114334106445,82.78706359863281 -2.7212114334106445,82.78706359863281 C-1.2193747758865356,83.48407745361328 1.2193747758865356,83.48407745361328 2.7212114334106445,82.78706359863281 C2.7212114334106445,82.78706359863281 178.37879943847656,1.2629365921020508 178.37879943847656,1.2629365921020508 C179.88063049316406,0.5659219026565552 179.88063049316406,-0.5659219026565552 178.37879943847656,-1.2629365921020508 C178.37879943847656,-1.2629365921020508 2.7212114334106445,-82.78706359863281 2.7212114334106445,-82.78706359863281 C1.2193747758865356,-83.48407745361328 -1.2193747758865356,-83.48407745361328 -2.7212114334106445,-82.78706359863281 C-2.7212114334106445,-82.78706359863281 -178.37879943847656,-1.2629365921020508 -178.37879943847656,-1.2629365921020508z"/></g></g><g transform="matrix(1,0,0,1,215.03298950195312,248.75)" opacity="0.5" style="mix-blend-mode: multiply; display: block;"><g opacity="1" transform="matrix(1,0,0,1,0,0)"><path class="secondary" fill="rgb(32,32,44)" fill-opacity="1" d=" M0,73.30000305175781 C0,73.30000305175781 -157.93699645996094,0 -157.93699645996094,0 C-157.93699645996094,0 0,-73.30000305175781 0,-73.30000305175781 C0,-73.30000305175781 157.93699645996094,0 157.93699645996094,0 C157.93699645996094,0 0,73.30000305175781 0,73.30000305175781z"/></g></g><g transform="matrix(1,0,0,1,215,260.04998779296875)" opacity="1" style="display: block;"><g opacity="1" transform="matrix(1,0,0,1,0,0)"><path stroke-linecap="round" stroke-linejoin="round" fill-opacity="0" class="primary" stroke="rgb(18,19,49)" stroke-opacity="1" stroke-width="7" d=" M-181.10000610351562,0 C-181.10000610351562,0 0,84.05000305175781 0,84.05000305175781 C0,84.05000305175781 181.10000610351562,0 181.10000610351562,0 C181.10000610351562,0 0,-84.05000305175781 0,-84.05000305175781 C0,-84.05000305175781 -181.10000610351562,0 -181.10000610351562,0z"/></g></g><g transform="matrix(1,0,0,1,215,216.0500030517578)" opacity="1" style="display: block;"><g opacity="1" transform="matrix(1,0,0,1,0,0)"><path class="tertiary" fill="rgb(99,95,197)" fill-opacity="1" d=" M-178.37879943847656,-1.2629365921020508 C-179.88063049316406,-0.5659219026565552 -179.88063049316406,0.5659219026565552 -178.37879943847656,1.2629365921020508 C-178.37879943847656,1.2629365921020508 -2.7212114334106445,82.78706359863281 -2.7212114334106445,82.78706359863281 C-1.2193747758865356,83.48407745361328 1.2193747758865356,83.48407745361328 2.7212114334106445,82.78706359863281 C2.7212114334106445,82.78706359863281 178.37879943847656,1.2629365921020508 178.37879943847656,1.2629365921020508 C179.88063049316406,0.5659219026565552 179.88063049316406,-0.5659219026565552 178.37879943847656,-1.2629365921020508 C178.37879943847656,-1.2629365921020508 2.7212114334106445,-82.78706359863281 2.7212114334106445,-82.78706359863281 C1.2193747758865356,-83.48407745361328 -1.2193747758865356,-83.48407745361328 -2.7212114334106445,-82.78706359863281 C-2.7212114334106445,-82.78706359863281 -178.37879943847656,-1.2629365921020508 -178.37879943847656,-1.2629365921020508z"/></g></g><g transform="matrix(1,0,0,1,214.96499633789062,204.625)" opacity="0.5" style="mix-blend-mode: multiply; display: block;"><g opacity="1" transform="matrix(1,0,0,1,0,0)"><path class="tertiary" fill="rgb(99,95,197)" fill-opacity="1" d=" M0,73.17500305175781 C0,73.17500305175781 -157.66799926757812,0 -157.66799926757812,0 C-157.66799926757812,0 0,-73.17500305175781 0,-73.17500305175781 C0,-73.17500305175781 157.66799926757812,0 157.66799926757812,0 C157.66799926757812,0 0,73.17500305175781 0,73.17500305175781z"/></g></g><g transform="matrix(1,0,0,1,215,216.0500030517578)" opacity="1" style="display: block;"><g opacity="1" transform="matrix(1,0,0,1,0,0)"><path stroke-linecap="round" stroke-linejoin="round" fill-opacity="0" class="primary" stroke="rgb(18,19,49)" stroke-opacity="1" stroke-width="7" d=" M-181.10000610351562,0 C-181.10000610351562,0 0,84.05000305175781 0,84.05000305175781 C0,84.05000305175781 181.10000610351562,0 181.10000610351562,0 C181.10000610351562,0 0,-84.05000305175781 0,-84.05000305175781 C0,-84.05000305175781 -181.10000610351562,0 -181.10000610351562,0z"/></g></g><g transform="matrix(1,0,0,1,214.96499633789062,170.5)" opacity="1" style="display: block;"><g opacity="1" transform="matrix(1,0,0,1,0,0)"><path class="secondary" fill="rgb(32,32,44)" fill-opacity="1" d=" M-178.37879943847656,-1.2629365921020508 C-179.88063049316406,-0.5659219026565552 -179.88063049316406,0.5659219026565552 -178.37879943847656,1.2629365921020508 C-178.37879943847656,1.2629365921020508 -2.7212114334106445,82.78706359863281 -2.7212114334106445,82.78706359863281 C-1.2193747758865356,83.48407745361328 1.2193747758865356,83.48407745361328 2.7212114334106445,82.78706359863281 C2.7212114334106445,82.78706359863281 178.37879943847656,1.2629365921020508 178.37879943847656,1.2629365921020508 C179.88063049316406,0.5659219026565552 179.88063049316406,-0.5659219026565552 178.37879943847656,-1.2629365921020508 C178.37879943847656,-1.2629365921020508 2.7212114334106445,-82.78706359863281 2.7212114334106445,-82.78706359863281 C1.2193747758865356,-83.48407745361328 -1.2193747758865356,-83.48407745361328 -2.7212114334106445,-82.78706359863281 C-2.7212114334106445,-82.78706359863281 -178.37879943847656,-1.2629365921020508 -178.37879943847656,-1.2629365921020508z"/></g></g><g transform="matrix(1,0,0,1,215,172.0500030517578)" opacity="1" style="display: block;"><g opacity="1" transform="matrix(1,0,0,1,0,0)"><path stroke-linecap="round" stroke-linejoin="round" fill-opacity="0" class="primary" stroke="rgb(18,19,49)" stroke-opacity="1" stroke-width="7" d=" M-181.10000610351562,0 C-181.10000610351562,0 0,84.05000305175781 0,84.05000305175781 C0,84.05000305175781 181.10000610351562,0 181.10000610351562,0 C181.10000610351562,0 0,-84.05000305175781 0,-84.05000305175781 C0,-84.05000305175781 -181.10000610351562,0 -181.10000610351562,0z"/></g></g></g><g clip-path="url(#__lottie_element_12)" transform="matrix(1,0,0,1,0,0)" opacity="1" style="display: none;"><g transform="matrix(1,0,0,1,215.03399658203125,259.5)" opacity="1" style="display: block;"><g opacity="1" transform="matrix(1,0,0,1,0,0)"><path class="secondary" fill="rgb(32,32,44)" fill-opacity="1" d=" M-178.37879943847656,-1.2629365921020508 C-179.88063049316406,-0.5659219026565552 -179.88063049316406,0.5659219026565552 -178.37879943847656,1.2629365921020508 C-178.37879943847656,1.2629365921020508 -2.7212114334106445,82.78706359863281 -2.7212114334106445,82.78706359863281 C-1.2193747758865356,83.48407745361328 1.2193747758865356,83.48407745361328 2.7212114334106445,82.78706359863281 C2.7212114334106445,82.78706359863281 178.37879943847656,1.2629365921020508 178.37879943847656,1.2629365921020508 C179.88063049316406,0.5659219026565552 179.88063049316406,-0.5659219026565552 178.37879943847656,-1.2629365921020508 C178.37879943847656,-1.2629365921020508 2.7212114334106445,-82.78706359863281 2.7212114334106445,-82.78706359863281 C1.2193747758865356,-83.48407745361328 -1.2193747758865356,-83.48407745361328 -2.7212114334106445,-82.78706359863281 C-2.7212114334106445,-82.78706359863281 -178.37879943847656,-1.2629365921020508 -178.37879943847656,-1.2629365921020508z"/></g></g><g transform="matrix(1,0,0,1,215.0330047607422,249.74998474121094)" opacity="0.5" style="mix-blend-mode: multiply; display: block;"><g opacity="1" transform="matrix(1,0,0,1,0,0)"><path class="secondary" fill="rgb(32,32,44)" fill-opacity="1" d=" M0,73.30000305175781 C0,73.30000305175781 -157.93699645996094,0 -157.93699645996094,0 C-157.93699645996094,0 0,-73.30000305175781 0,-73.30000305175781 C0,-73.30000305175781 157.93699645996094,0 157.93699645996094,0 C157.93699645996094,0 0,73.30000305175781 0,73.30000305175781z"/></g></g><g transform="matrix(1,0,0,1,215,260.04998779296875)" opacity="1" style="display: block;"><g opacity="1" transform="matrix(1,0,0,1,0,0)"><path stroke-linecap="round" stroke-linejoin="round" fill-opacity="0" class="primary" stroke="rgb(18,19,49)" stroke-opacity="1" stroke-width="7" d=" M-181.10000610351562,0 C-181.10000610351562,0 0,84.05000305175781 0,84.05000305175781 C0,84.05000305175781 181.10000610351562,0 181.10000610351562,0 C181.10000610351562,0 0,-84.05000305175781 0,-84.05000305175781 C0,-84.05000305175781 -181.10000610351562,0 -181.10000610351562,0z"/></g></g><g transform="matrix(1,0,0,1,215.03399658203125,215.5)" opacity="1" style="display: block;"><g opacity="1" transform="matrix(1,0,0,1,0,0)"><path class="secondary" fill="rgb(32,32,44)" fill-opacity="1" d=" M-178.37879943847656,-1.2629365921020508 C-179.88063049316406,-0.5659219026565552 -179.88063049316406,0.5659219026565552 -178.37879943847656,1.2629365921020508 C-178.37879943847656,1.2629365921020508 -2.7212114334106445,82.78706359863281 -2.7212114334106445,82.78706359863281 C-1.2193747758865356,83.48407745361328 1.2193747758865356,83.48407745361328 2.7212114334106445,82.78706359863281 C2.7212114334106445,82.78706359863281 178.37879943847656,1.2629365921020508 178.37879943847656,1.2629365921020508 C179.88063049316406,0.5659219026565552 179.88063049316406,-0.5659219026565552 178.37879943847656,-1.2629365921020508 C178.37879943847656,-1.2629365921020508 2.7212114334106445,-82.78706359863281 2.7212114334106445,-82.78706359863281 C1.2193747758865356,-83.48407745361328 -1.2193747758865356,-83.48407745361328 -2.7212114334106445,-82.78706359863281 C-2.7212114334106445,-82.78706359863281 -178.37879943847656,-1.2629365921020508 -178.37879943847656,-1.2629365921020508z"/></g><g opacity="1" transform="matrix(1,0,0,1,0,0)"><path class="tertiary" fill="rgb(99,95,197)" fill-opacity="1" d=" M-178.37879943847656,-1.2629365921020508 C-179.88063049316406,-0.5659219026565552 -179.88063049316406,0.5659219026565552 -178.37879943847656,1.2629365921020508 C-178.37879943847656,1.2629365921020508 -2.7212114334106445,82.78706359863281 -2.7212114334106445,82.78706359863281 C-1.2193747758865356,83.48407745361328 1.2193747758865356,83.48407745361328 2.7212114334106445,82.78706359863281 C2.7212114334106445,82.78706359863281 178.37879943847656,1.2629365921020508 178.37879943847656,1.2629365921020508 C179.88063049316406,0.5659219026565552 179.88063049316406,-0.5659219026565552 178.37879943847656,-1.2629365921020508 C178.37879943847656,-1.2629365921020508 2.7212114334106445,-82.78706359863281 2.7212114334106445,-82.78706359863281 C1.2193747758865356,-83.48407745361328 -1.2193747758865356,-83.48407745361328 -2.7212114334106445,-82.78706359863281 C-2.7212114334106445,-82.78706359863281 -178.37879943847656,-1.2629365921020508 -178.37879943847656,-1.2629365921020508z"/></g></g><g transform="matrix(1,0,0,1,215.0330047607422,204.75)" opacity="0.5" style="mix-blend-mode: multiply; display: block;"><g opacity="1" transform="matrix(1,0,0,1,0,0)"><path class="tertiary" fill="rgb(99,95,197)" fill-opacity="1" d=" M0,73.30000305175781 C0,73.30000305175781 -157.93699645996094,0 -157.93699645996094,0 C-157.93699645996094,0 0,-73.30000305175781 0,-73.30000305175781 C0,-73.30000305175781 157.93699645996094,0 157.93699645996094,0 C157.93699645996094,0 0,73.30000305175781 0,73.30000305175781z"/></g><g opacity="1" transform="matrix(1,0,0,1,0,0)"><path class="secondary" fill="rgb(32,32,44)" fill-opacity="0" d=" M0,73.30000305175781 C0,73.30000305175781 -157.93699645996094,0 -157.93699645996094,0 C-157.93699645996094,0 0,-73.30000305175781 0,-73.30000305175781 C0,-73.30000305175781 157.93699645996094,0 157.93699645996094,0 C157.93699645996094,0 0,73.30000305175781 0,73.30000305175781z"/></g></g><g transform="matrix(1,0,0,1,215,216.0500030517578)" opacity="1" style="display: block;"><g opacity="1" transform="matrix(1,0,0,1,0,0)"><path stroke-linecap="round" stroke-linejoin="round" fill-opacity="0" class="primary" stroke="rgb(18,19,49)" stroke-opacity="1" stroke-width="7" d=" M-181.10000610351562,0 C-181.10000610351562,0 0,84.05000305175781 0,84.05000305175781 C0,84.05000305175781 181.10000610351562,0 181.10000610351562,0 C181.10000610351562,0 0,-84.05000305175781 0,-84.05000305175781 C0,-84.05000305175781 -181.10000610351562,0 -181.10000610351562,0z"/></g></g><g transform="matrix(1,0,0,1,214.96499633789062,171.5)" opacity="1" style="display: block;"><g opacity="1" transform="matrix(1,0,0,1,0,0)"><path class="tertiary" fill="rgb(99,95,197)" fill-opacity="0" d=" M-178.37879943847656,-1.2629365921020508 C-179.88063049316406,-0.5659219026565552 -179.88063049316406,0.5659219026565552 -178.37879943847656,1.2629365921020508 C-178.37879943847656,1.2629365921020508 -2.7212114334106445,82.78706359863281 -2.7212114334106445,82.78706359863281 C-1.2193747758865356,83.48407745361328 1.2193747758865356,83.48407745361328 2.7212114334106445,82.78706359863281 C2.7212114334106445,82.78706359863281 178.37879943847656,1.2629365921020508 178.37879943847656,1.2629365921020508 C179.88063049316406,0.5659219026565552 179.88063049316406,-0.5659219026565552 178.37879943847656,-1.2629365921020508 C178.37879943847656,-1.2629365921020508 2.7212114334106445,-82.78706359863281 2.7212114334106445,-82.78706359863281 C1.2193747758865356,-83.48407745361328 -1.2193747758865356,-83.48407745361328 -2.7212114334106445,-82.78706359863281 C-2.7212114334106445,-82.78706359863281 -178.37879943847656,-1.2629365921020508 -178.37879943847656,-1.2629365921020508z"/></g><g opacity="1" transform="matrix(1,0,0,1,0,0)"><path class="secondary" fill="rgb(32,32,44)" fill-opacity="1" d=" M-178.37879943847656,-1.2629365921020508 C-179.88063049316406,-0.5659219026565552 -179.88063049316406,0.5659219026565552 -178.37879943847656,1.2629365921020508 C-178.37879943847656,1.2629365921020508 -2.7212114334106445,82.78706359863281 -2.7212114334106445,82.78706359863281 C-1.2193747758865356,83.48407745361328 1.2193747758865356,83.48407745361328 2.7212114334106445,82.78706359863281 C2.7212114334106445,82.78706359863281 178.37879943847656,1.2629365921020508 178.37879943847656,1.2629365921020508 C179.88063049316406,0.5659219026565552 179.88063049316406,-0.5659219026565552 178.37879943847656,-1.2629365921020508 C178.37879943847656,-1.2629365921020508 2.7212114334106445,-82.78706359863281 2.7212114334106445,-82.78706359863281 C1.2193747758865356,-83.48407745361328 -1.2193747758865356,-83.48407745361328 -2.7212114334106445,-82.78706359863281 C-2.7212114334106445,-82.78706359863281 -178.37879943847656,-1.2629365921020508 -178.37879943847656,-1.2629365921020508z"/></g></g><g transform="matrix(1,0,0,1,214.96499633789062,160.625)" opacity="0.5" style="mix-blend-mode: multiply; display: block;"><g opacity="1" transform="matrix(1,0,0,1,0,0)"><path class="tertiary" fill="rgb(99,95,197)" fill-opacity="0" d=" M-0.5070000290870667,34.92300033569336 C-0.5070000290870667,34.92300033569336 -117.49400329589844,-19.371000289916992 -117.49400329589844,-19.371000289916992 C-117.49400329589844,-19.371000289916992 -0.5070000290870667,-73.66600036621094 -0.5070000290870667,-73.66600036621094 C-0.5070000290870667,-73.66600036621094 116.4800033569336,-19.371000289916992 116.4800033569336,-19.371000289916992 C116.4800033569336,-19.371000289916992 -0.5070000290870667,34.92300033569336 -0.5070000290870667,34.92300033569336z"/></g></g><g transform="matrix(1,0,0,1,215,172.0500030517578)" opacity="1" style="display: block;"><g opacity="1" transform="matrix(1,0,0,1,0,0)"><path stroke-linecap="round" stroke-linejoin="round" fill-opacity="0" class="primary" stroke="rgb(18,19,49)" stroke-opacity="1" stroke-width="7" d=" M-181.10000610351562,0 C-181.10000610351562,0 0,84.05000305175781 0,84.05000305175781 C0,84.05000305175781 181.10000610351562,0 181.10000610351562,0 C181.10000610351562,0 0,-84.05000305175781 0,-84.05000305175781 C0,-84.05000305175781 -181.10000610351562,0 -181.10000610351562,0z"/></g></g><g transform="matrix(1,0,0,1,214.96499633789062,57.76575469970703)" opacity="0.021483333333321752" style="display: none;"><g opacity="1" transform="matrix(1,0,0,1,0,0)"><path class="secondary" fill="rgb(32,32,44)" fill-opacity="1" d=" M-85.72779083251953,-1.2629388570785522 C-87.22962188720703,-0.5659229159355164 -87.22962188720703,0.5659229159355164 -85.72779083251953,1.2629388570785522 C-85.72779083251953,1.2629388570785522 -2.721210241317749,39.78705978393555 -2.721210241317749,39.78705978393555 C-1.2193742990493774,40.48407745361328 1.2193742990493774,40.48407745361328 2.721210241317749,39.78705978393555 C2.721210241317749,39.78705978393555 85.72779083251953,1.2629388570785522 85.72779083251953,1.2629388570785522 C87.22962188720703,0.5659229159355164 87.22962188720703,-0.5659229159355164 85.72779083251953,-1.2629388570785522 C85.72779083251953,-1.2629388570785522 2.721210241317749,-39.78705978393555 2.721210241317749,-39.78705978393555 C1.2193742990493774,-40.48407745361328 -1.2193742990493774,-40.48407745361328 -2.721210241317749,-39.78705978393555 C-2.721210241317749,-39.78705978393555 -85.72779083251953,-1.2629388570785522 -85.72779083251953,-1.2629388570785522z"/></g></g><g transform="matrix(1,0,0,1,215,59.31575393676758)" opacity="0.021483333333321752" style="display: none;"><g opacity="1" transform="matrix(1,0,0,1,0,0)"><path stroke-linecap="round" stroke-linejoin="round" fill-opacity="0" class="primary" stroke="rgb(18,19,49)" stroke-opacity="1" stroke-width="7" d=" M-88.4489974975586,0 C-88.4489974975586,0 0,41.04999923706055 0,41.04999923706055 C0,41.04999923706055 88.4489974975586,0 88.4489974975586,0 C88.4489974975586,0 0,-41.04999923706055 0,-41.04999923706055 C0,-41.04999923706055 -88.4489974975586,0 -88.4489974975586,0z"/></g></g></g><g clip-path="url(#__lottie_element_360)" transform="matrix(1,0,0,1,0,0)" opacity="1" style="display: block;"><g transform="matrix(1,0,0,1,215.03399658203125,259.5)" opacity="1" style="display: block;"><g opacity="1" transform="matrix(1,0,0,1,0,0)"><path class="secondary" fill="rgb(32,32,44)" fill-opacity="1" d=" M-178.37879943847656,-1.2629365921020508 C-179.88063049316406,-0.5659219026565552 -179.88063049316406,0.5659219026565552 -178.37879943847656,1.2629365921020508 C-178.37879943847656,1.2629365921020508 -2.7212114334106445,82.78706359863281 -2.7212114334106445,82.78706359863281 C-1.2193747758865356,83.48407745361328 1.2193747758865356,83.48407745361328 2.7212114334106445,82.78706359863281 C2.7212114334106445,82.78706359863281 178.37879943847656,1.2629365921020508 178.37879943847656,1.2629365921020508 C179.88063049316406,0.5659219026565552 179.88063049316406,-0.5659219026565552 178.37879943847656,-1.2629365921020508 C178.37879943847656,-1.2629365921020508 2.7212114334106445,-82.78706359863281 2.7212114334106445,-82.78706359863281 C1.2193747758865356,-83.48407745361328 -1.2193747758865356,-83.48407745361328 -2.7212114334106445,-82.78706359863281 C-2.7212114334106445,-82.78706359863281 -178.37879943847656,-1.2629365921020508 -178.37879943847656,-1.2629365921020508z"/></g></g><g transform="matrix(1,0,0,1,215.0330047607422,248.75)" opacity="0.5" style="mix-blend-mode: multiply; display: block;"><g opacity="1" transform="matrix(1,0,0,1,0,0)"><path class="secondary" fill="rgb(32,32,44)" fill-opacity="1" d=" M0,73.30000305175781 C0,73.30000305175781 -157.93699645996094,0 -157.93699645996094,0 C-157.93699645996094,0 0,-73.30000305175781 0,-73.30000305175781 C0,-73.30000305175781 157.93699645996094,0 157.93699645996094,0 C157.93699645996094,0 0,73.30000305175781 0,73.30000305175781z"/></g></g><g transform="matrix(1,0,0,1,215,260.04998779296875)" opacity="1" style="display: block;"><g opacity="1" transform="matrix(1,0,0,1,0,0)"><path stroke-linecap="round" stroke-linejoin="round" fill-opacity="0" class="primary" stroke="rgb(18,19,49)" stroke-opacity="1" stroke-width="7" d=" M-181.10000610351562,0 C-181.10000610351562,0 0,84.05000305175781 0,84.05000305175781 C0,84.05000305175781 181.10000610351562,0 181.10000610351562,0 C181.10000610351562,0 0,-84.05000305175781 0,-84.05000305175781 C0,-84.05000305175781 -181.10000610351562,0 -181.10000610351562,0z"/></g></g><g transform="matrix(1,0,0,1,214.96499633789062,215.5)" opacity="1" style="display: block;"><g opacity="1" transform="matrix(1,0,0,1,0,0)"><path class="tertiary" fill="rgb(99,95,197)" fill-opacity="1" d=" M-178.37879943847656,-1.2629365921020508 C-179.88063049316406,-0.5659219026565552 -179.88063049316406,0.5659219026565552 -178.37879943847656,1.2629365921020508 C-178.37879943847656,1.2629365921020508 -2.7212114334106445,82.78706359863281 -2.7212114334106445,82.78706359863281 C-1.2193747758865356,83.48407745361328 1.2193747758865356,83.48407745361328 2.7212114334106445,82.78706359863281 C2.7212114334106445,82.78706359863281 178.37879943847656,1.2629365921020508 178.37879943847656,1.2629365921020508 C179.88063049316406,0.5659219026565552 179.88063049316406,-0.5659219026565552 178.37879943847656,-1.2629365921020508 C178.37879943847656,-1.2629365921020508 2.7212114334106445,-82.78706359863281 2.7212114334106445,-82.78706359863281 C1.2193747758865356,-83.48407745361328 -1.2193747758865356,-83.48407745361328 -2.7212114334106445,-82.78706359863281 C-2.7212114334106445,-82.78706359863281 -178.37879943847656,-1.2629365921020508 -178.37879943847656,-1.2629365921020508z"/></g></g><g transform="matrix(1,0,0,1,214.96499633789062,204.625)" opacity="0.5" style="mix-blend-mode: multiply; display: block;"><g opacity="1" transform="matrix(1,0,0,1,0,0)"><path class="tertiary" fill="rgb(99,95,197)" fill-opacity="1" d=" M0,73.17500305175781 C0,73.17500305175781 -157.66799926757812,0 -157.66799926757812,0 C-157.66799926757812,0 0,-73.17500305175781 0,-73.17500305175781 C0,-73.17500305175781 157.66799926757812,0 157.66799926757812,0 C157.66799926757812,0 0,73.17500305175781 0,73.17500305175781z"/></g></g><g transform="matrix(1,0,0,1,215,215.0500030517578)" opacity="1" style="display: block;"><g opacity="1" transform="matrix(1,0,0,1,0,0)"><path stroke-linecap="round" stroke-linejoin="round" fill-opacity="0" class="primary" stroke="rgb(18,19,49)" stroke-opacity="1" stroke-width="7" d=" M-181.10000610351562,0 C-181.10000610351562,0 0,84.05000305175781 0,84.05000305175781 C0,84.05000305175781 181.10000610351562,0 181.10000610351562,0 C181.10000610351562,0 0,-84.05000305175781 0,-84.05000305175781 C0,-84.05000305175781 -181.10000610351562,0 -181.10000610351562,0z"/></g></g><g transform="matrix(1,0,0,1,214.96499633789062,170.5)" opacity="1" style="display: block;"><g opacity="1" transform="matrix(1,0,0,1,0,0)"><path class="secondary" fill="rgb(32,32,44)" fill-opacity="1" d=" M-178.37879943847656,-1.2629365921020508 C-179.88063049316406,-0.5659219026565552 -179.88063049316406,0.5659219026565552 -178.37879943847656,1.2629365921020508 C-178.37879943847656,1.2629365921020508 -2.7212114334106445,82.78706359863281 -2.7212114334106445,82.78706359863281 C-1.2193747758865356,83.48407745361328 1.2193747758865356,83.48407745361328 2.7212114334106445,82.78706359863281 C2.7212114334106445,82.78706359863281 178.37879943847656,1.2629365921020508 178.37879943847656,1.2629365921020508 C179.88063049316406,0.5659219026565552 179.88063049316406,-0.5659219026565552 178.37879943847656,-1.2629365921020508 C178.37879943847656,-1.2629365921020508 2.7212114334106445,-82.78706359863281 2.7212114334106445,-82.78706359863281 C1.2193747758865356,-83.48407745361328 -1.2193747758865356,-83.48407745361328 -2.7212114334106445,-82.78706359863281 C-2.7212114334106445,-82.78706359863281 -178.37879943847656,-1.2629365921020508 -178.37879943847656,-1.2629365921020508z"/></g></g><g transform="matrix(1,0,0,1,215,172.0500030517578)" opacity="1" style="display: block;"><g opacity="1" transform="matrix(1,0,0,1,0,0)"><path stroke-linecap="round" stroke-linejoin="round" fill-opacity="0" class="primary" stroke="rgb(18,19,49)" stroke-opacity="1" stroke-width="7" d=" M-181.10000610351562,0 C-181.10000610351562,0 0,84.05000305175781 0,84.05000305175781 C0,84.05000305175781 181.10000610351562,0 181.10000610351562,0 C181.10000610351562,0 0,-84.05000305175781 0,-84.05000305175781 C0,-84.05000305175781 -181.10000610351562,0 -181.10000610351562,0z"/></g></g></g></g></svg>